<?xml version="1.0" encoding="UTF-8"?>
<svg id="uuid-5d9854cb-ecd2-4e07-9b15-dfbf684627bd" data-name="Layer 2" xmlns="http://www.w3.org/2000/svg" viewBox="0 0 1499.46 188.55">
  <g id="uuid-9a694c14-72a8-4acd-8e4d-e32705fb60ad" data-name="Layer 1">
    <g>
      <polygon points="130.43 15.08 124.07 14.51 128.4 9.81 126.98 3.58 132.79 6.25 138.27 2.98 137.53 9.32 142.34 13.53 136.07 14.78 133.56 20.65 130.43 15.08" style="fill: #f29f05; stroke-width: 0px;"/>
      <path d="M137.66,3.93l-.59,5.08-.06.52.4.35,3.85,3.37-5.01,1-.52.1-.21.48-2.01,4.7-2.5-4.46-.26-.46-.52-.05-5.09-.46,3.46-3.76.36-.39-.12-.51-1.13-4.99,4.64,2.13.48.22.45-.27,4.39-2.62M138.89,2.03l-6.13,3.65-6.48-2.98,1.58,6.96-4.84,5.25,7.11.65,3.5,6.22,2.81-6.56,7-1.4-5.37-4.7.83-7.09h0Z" style="fill: #2f2f2f; stroke-width: 0px;"/>
    </g>
    <g>
      <polygon points="7.62 71.75 1.12 67.38 8.54 64.88 10.68 57.35 15.35 63.63 23.18 63.35 18.64 69.73 21.34 77.08 13.86 74.74 7.7 79.58 7.62 71.75" style="fill: #de41f2; stroke-width: 0px;"/>
      <path d="M10.88,58.46l3.91,5.26.31.42.53-.02,6.55-.24-3.79,5.35-.3.43.18.49,2.25,6.15-6.25-1.95-.5-.16-.41.32-5.15,4.04-.07-6.55v-.53s-.44-.29-.44-.29l-5.44-3.66,6.21-2.09.5-.17.14-.51,1.79-6.3M10.48,56.24l-2.35,8.25-8.13,2.74,7.12,4.79.1,8.58,6.75-5.29,8.19,2.56-2.95-8.05,4.97-7-8.57.32-5.12-6.88h0Z" style="fill: #2f2f2f; stroke-width: 0px;"/>
    </g>
    <g>
      <polygon points="143.84 182.15 137.8 181.65 141.88 177.15 140.48 171.25 146.02 173.74 151.21 170.59 150.55 176.62 155.15 180.58 149.21 181.82 146.86 187.42 143.84 182.15" style="fill: #f25d27; stroke-width: 0px;"/>
      <path d="M150.6,171.54l-.52,4.76-.06.52.4.34,3.63,3.13-4.69.98-.51.11-.2.48-1.85,4.42-2.38-4.16-.26-.46-.52-.04-4.78-.4,3.22-3.55.35-.39-.12-.51-1.1-4.67,4.37,1.97.48.22.45-.27,4.1-2.49M151.81,169.63l-5.83,3.54-6.22-2.8,1.56,6.64-4.58,5.05,6.79.56,3.39,5.92,2.64-6.29,6.68-1.39-5.17-4.45.74-6.78h0Z" style="fill: #2f2f2f; stroke-width: 0px;"/>
    </g>
    <polygon points="80.62 103.41 74.58 106.58 73.77 113.35 68.89 108.59 62.2 109.91 65.22 103.79 61.9 97.84 68.64 98.82 73.28 93.82 74.43 100.54 80.62 103.41" style="fill: #fefdff; stroke-width: 0px;"/>
    <g>
      <polygon points="1363.39 12.76 1357.13 11.5 1361.93 7.29 1361.19 .95 1366.68 4.22 1372.48 1.55 1371.06 7.78 1375.39 12.48 1369.03 13.05 1365.9 18.62 1363.39 12.76" style="fill: #de41f2; stroke-width: 0px;"/>
      <path d="M1361.8,1.9l4.39,2.62.45.27.48-.22,4.64-2.13-1.13,4.99-.12.51.36.39,3.46,3.76-5.09.46-.52.05-.26.46-2.5,4.46-2.01-4.7-.21-.48-.52-.1-5.01-1,3.85-3.37.4-.35-.06-.52-.59-5.08M1360.57,0l.83,7.09-5.37,4.7,7,1.4,2.81,6.56,3.5-6.22,7.11-.65-4.84-5.25,1.58-6.96-6.48,2.98-6.13-3.65h0Z" style="fill: #2f2f2f; stroke-width: 0px;"/>
    </g>
    <g>
      <polygon points="1485.6 72.71 1478.13 75.05 1480.82 67.7 1476.28 61.32 1484.11 61.6 1488.78 55.32 1490.93 62.85 1498.34 65.35 1491.84 69.72 1491.76 77.55 1485.6 72.71" style="fill: #f25d27; stroke-width: 0px;"/>
      <path d="M1488.58,56.43l1.79,6.3.14.51.5.17,6.21,2.09-5.44,3.66-.44.29v.53s-.08,6.55-.08,6.55l-5.15-4.04-.41-.32-.5.16-6.25,1.95,2.25-6.15.18-.49-.3-.43-3.79-5.35,6.55.24.53.02.31-.42,3.91-5.26M1488.99,54.21l-5.12,6.88-8.57-.32,4.97,7-2.95,8.05,8.19-2.56,6.75,5.29.1-8.58,7.12-4.79-8.13-2.74-2.35-8.25h0Z" style="fill: #2f2f2f; stroke-width: 0px;"/>
    </g>
    <polygon points="1343.22 178.83 1349.89 180.23 1352.53 186.52 1355.92 180.6 1362.71 180.03 1358.13 174.98 1359.7 168.34 1353.48 171.14 1347.65 167.6 1348.38 174.38 1343.22 178.83" style="fill: #fefdff; stroke-width: 0px;"/>
    <g>
      <polygon points="1426.82 105.52 1420.79 104.89 1424.96 100.48 1423.7 94.54 1429.18 97.15 1434.44 94.12 1433.65 100.13 1438.16 104.2 1432.19 105.31 1429.72 110.85 1426.82 105.52" style="fill: #f29f05; stroke-width: 0px;"/>
      <path d="M1433.81,95.06l-.62,4.75-.07.52.39.35,3.56,3.21-4.71.88-.52.1-.21.48-1.95,4.38-2.29-4.21-.25-.46-.52-.05-4.77-.5,3.3-3.48.36-.38-.11-.51-1-4.69,4.33,2.06.47.23.46-.26,4.15-2.4M1435.06,93.18l-5.9,3.41-6.16-2.93,1.42,6.67-4.69,4.95,6.78.71,3.26,5.99,2.77-6.23,6.7-1.25-5.07-4.56.89-6.76h0Z" style="fill: #2f2f2f; stroke-width: 0px;"/>
    </g>
  </g>
</svg>