<?xml version="1.0" encoding="UTF-8"?>
<svg id="uuid-c7398d83-7f07-40b1-9259-93bae0f2390f" data-name="Layer 2" xmlns="http://www.w3.org/2000/svg" viewBox="0 0 386.5 108.5">
  <g id="uuid-33d46b44-cfc3-491a-b262-fc7417cf8f58" data-name="WeatherBuilding">
    <g>
      <rect x=".5" y="5" width="379" height="103" rx="25.87" ry="25.87" style="fill: #2f2f2f; stroke-width: 0px;"/>
      <path d="M353.63,5.5c13.99,0,25.37,11.38,25.37,25.37v51.26c0,13.99-11.38,25.37-25.37,25.37H26.37c-13.99,0-25.37-11.38-25.37-25.37V30.87C1,16.88,12.38,5.5,26.37,5.5h327.26M353.63,4.5H26.37C11.81,4.5,0,16.31,0,30.87v51.26c0,14.56,11.81,26.37,26.37,26.37h327.26c14.56,0,26.37-11.81,26.37-26.37V30.87c0-14.56-11.81-26.37-26.37-26.37h0Z" style="fill: #2f2f2f; stroke-width: 0px;"/>
    </g>
    <g>
      <rect x="8" y="1.5" width="377" height="101" rx="24.87" ry="24.87" style="fill: #f25d27; stroke-width: 0px;"/>
      <path d="M360.13,3c12.89,0,23.37,10.48,23.37,23.37v51.26c0,12.89-10.48,23.37-23.37,23.37H32.87c-12.89,0-23.37-10.48-23.37-23.37V26.37c0-12.89,10.48-23.37,23.37-23.37h327.26M360.13,0H32.87C18.31,0,6.5,11.81,6.5,26.37v51.26c0,14.56,11.81,26.37,26.37,26.37h327.26c14.56,0,26.37-11.81,26.37-26.37V26.37c0-14.56-11.81-26.37-26.37-26.37h0Z" style="fill: #2f2f2f; stroke-width: 0px;"/>
    </g>
  </g>
</svg>