<?xml version="1.0" encoding="UTF-8"?>
<svg id="uuid-76b9ba2e-a006-40c4-bd1f-9b8f48822c04" data-name="Layer 2" xmlns="http://www.w3.org/2000/svg" viewBox="0 0 2247.98 462.02">
  <g id="uuid-6cfb6d53-3aae-47a4-b894-62abd359232b" data-name="Layer 2">
    <g id="uuid-bd3413fc-8c31-4792-acd6-fe67f7ad1c7e" data-name="Layer 1-2">
      <path d="M2158.63,78.8c-169-132-765-61-897-49-50.8,4.62-104,9-125,14-17.62,4.19-43,10-58,43-12.63,27.79-56,23,8,46,59.52,21.39,124,18,107,50-26.89,50.62-150.29,39.74-180,41-189,8-763.37-138.97-992-28-84.38,40.96,104.26,105.13,120,154,23.63,73.35,490.49,47.8,699,42,864.06-24.05,1168,179.99,1314-15,81.06-108.26,133.96-133.54,53-301-11.23-23.22-34.79,14.1-49,3h0Z" style="fill: #d9b18f; stroke-width: 0px;"/>
    </g>
  </g>
</svg>