<?xml version="1.0" encoding="UTF-8"?>
<svg id="Layer_2" data-name="Layer 2" xmlns="http://www.w3.org/2000/svg" viewBox="0 0 948.06 112.04">
  <defs>
    <style>
      .cls-1 {
        fill: #fff;
        stroke-width: 0px;
      }
    </style>
  </defs>
  <g id="Layer_1-2" data-name="Layer 1">
    <g>
      <path class="cls-1" d="M11.28,111.24c-2.17-7.94-4.34-15.88-6.51-23.83-.17-.62.15-1.16.79-1.34,3.04-.83,6.08-1.65,9.13-2.46,3.52-.94,6.56-1.96,5.92-4.4-.26-.97-2.01-1.48-4.82-.74-.77.2-1.54.41-2.31.61-.65.17-1.19-.13-1.36-.75-.25-.93-.5-1.86-.74-2.78-.17-.63.15-1.16.81-1.33.19-.05.39-.1.58-.15,3.98-1.06,5.43-4.04,4.87-6.2-.44-1.67-2.13-2.79-4.75-2.1-2.62.69-3.77,2.49-2.91,5.69.17.63-.15,1.16-.81,1.33-2.46.66-4.92,1.33-7.38,2-.65.18-1.2-.12-1.37-.75,0-.02-.01-.05-.02-.07-2.02-7.36,3.87-12.41,10.73-14.23,7.15-1.9,15.26-.33,16.84,5.88.59,2.3-.13,4.94-2.93,7.22-.4.25-.58.45-.54.59.04.14.29.22.76.25,5.32.26,11.7,3.62,13.9,12.35,1.88,7.49-1.92,19.39-16.14,23.15-3.47.92-6.94,1.86-10.41,2.8-.64.17-1.17-.13-1.35-.75Z"/>
      <path class="cls-1" d="M46.81,101.94c-3.91-15.6-7.82-31.2-11.73-46.8-.16-.63.18-1.16.83-1.32,3.78-.94,7.55-1.88,11.33-2.8,15.18-3.67,21.87,8.29,24.7,20.55,2.57,11.1,4.12,24.34-12.93,28.46-3.63.88-7.25,1.78-10.88,2.68-.64.16-1.17-.15-1.33-.78ZM58.54,63.34c-1.13-4.76-5.06-6.34-6.88-5.9-.66.16-1.08.63-.91,1.33.97,4.01,1.94,8.02,2.92,12.04.27,1.12.81,1.43,1.75,1.21,3.38-.89,3.83-5.73,3.13-8.67Z"/>
      <path class="cls-1" d="M95.47,90.47c-3.46-15.7-6.93-31.41-10.39-47.11-.14-.63.21-1.15.87-1.3,4.53-1,9.06-1.98,13.6-2.94.66-.14,1.1.13,1.37.67,2.92,5.69,5.82,11.38,8.7,17.08.25.46.6.68.82.64.29-.06.45-.39.49-.91.45-6.39.91-12.79,1.39-19.18.03-.59.33-1.02.99-1.16,4.57-.93,9.13-1.84,13.7-2.74.66-.13,1.19.21,1.31.84,3.08,15.78,6.16,31.57,9.24,47.35.12.64-.22,1.14-.87,1.27-3.15.62-6.3,1.24-9.45,1.88-.64.13-1.16-.21-1.29-.84-1.37-6.78-2.74-13.55-4.11-20.33-.09-.42-.43-.65-.72-.59-.22.04-.46.31-.47.68-.52,7.26-1.01,14.51-1.48,21.76-.03.59-.31,1.02-.96,1.15-1.67.35-3.34.69-5.01,1.04-.64.14-1.08-.14-1.34-.68-3.3-6.44-6.62-12.88-9.96-19.31-.15-.34-.48-.49-.7-.44-.29.06-.52.41-.43.83,1.45,6.74,2.89,13.47,4.34,20.21.14.63-.2,1.15-.84,1.29-2.5.54-5,1.08-7.5,1.63-.64.14-1.16-.19-1.3-.82Z"/>
      <path class="cls-1" d="M138.39,69.09c-2.13-10.94-2.55-28.8,10.78-31.27,13.19-2.41,19.13,14.44,21.04,25.42,1.08,6.26-.08,14.09-13.34,16.5-13.26,2.45-17.27-4.43-18.48-10.66ZM155.84,52.42c-.78-4.32-3.41-8.82-5.39-8.46-2.57.47-3.3,5.08-2.4,9.89.45,2.41,2.34,3.67,4.81,3.21,2.18-.4,3.41-2.31,2.99-4.64Z"/>
      <path class="cls-1" d="M171.14,55.71c-2.17-12.48,2.4-21.04,12.79-23.76.65-.18.96-.59.86-1.23-.34-2.08-.68-4.17-1.02-6.25-.1-.64.27-1.14.94-1.25,3.83-.62,7.65-1.23,11.48-1.82.67-.1,1.18.25,1.28.89,2.46,15.89,4.92,31.78,7.38,47.68.1.64-.27,1.13-.92,1.24-3.53.55-7.06,1.11-10.58,1.68-12.94,2.1-19.76-3.11-22.21-17.16ZM187.88,49.69c-.61-3.72-1.21-7.44-1.82-11.16-.08-.5-.49-.72-1.08-.63-1.69.27-4.7,3.04-4.07,6.8.65,3.91,2.95,6.95,5.8,6.49.95-.15,1.32-.65,1.18-1.51Z"/>
      <path class="cls-1" d="M205.52,55.14c-1.3-8.39.27-27.1,13.68-29.03,9.91-1.41,12.81,3.38,13.91,11.51.1.71-.29,1.13-.95,1.22-4.64.63-9.29,1.29-13.93,1.96-.66.1-1.13.46-1.04,1.1.49,3.36,4.4,4.07,15.87,2.49.73-.1,1.23.27,1.31.91.9,6.66,1.81,13.32,2.71,19.98.09.64-.29,1.13-.94,1.22-2.94.4-5.87.81-8.8,1.22-11.24,1.59-20.03-.9-21.83-12.58ZM222.68,33.68c-.5-.87-1.25-1.42-2.36-1.26-1.32.19-2.13.89-2.65,1.91-.12.23-.16.46-.14.6.06.43.47.66,1.06.57,1.13-.16,2.25-.32,3.38-.48.73-.1,1.11-.67.71-1.34Z"/>
      <path class="cls-1" d="M240.56,64.8c-2.14-15.96-4.27-31.93-6.41-47.89-.09-.64.3-1.13.97-1.22,3.71-.49,7.43-.98,11.15-1.45.67-.08,1.17.29,1.25.93,2.02,15.98,4.03,31.96,6.05,47.94.08.64-.3,1.13-.95,1.21-3.61.46-7.22.93-10.83,1.41-.65.09-1.14-.28-1.23-.93Z"/>
      <path class="cls-1" d="M272.66,60.81c-1.84-15.98-3.68-31.95-5.52-47.93-.07-.64.32-1.12.99-1.2,5.06-.58,10.12-1.14,15.18-1.67,8.49-.9,13.01,1.42,13.53,6.72.28,2.8-1.07,5.82-3.57,7.67-.35.25-.55.49-.53.63.01.14.25.26.72.43,5.55,2.48,8.25,9.03,8.87,15.4.92,9.54-1.56,17.99-14.14,19.31-4.78.51-9.55,1.03-14.33,1.58-.65.07-1.13-.3-1.21-.95ZM283.18,23.49c1.55-.17,4.23-1.75,4-3.9-.21-2.01-2.9-2.67-4.46-2.5-.67.07-1.17.27-1.13.63.19,1.77.38,3.53.57,5.3.04.36.43.53,1.02.47ZM284.53,35.51c1.76-.19,5.08-1.77,4.83-4.27-.24-2.29-3.37-3.05-5.21-2.85-.81.09-1.38.36-1.33.79.22,2,.43,4.01.65,6.01.03.29.41.39,1.07.32Z"/>
      <path class="cls-1" d="M306.76,57.22c-1.53-16.03-3.06-32.07-4.58-48.1-.06-.65.35-1.12,1.02-1.18,3.73-.35,7.45-.69,11.18-1.02.67-.06,1.16.33,1.21.98,1.41,16.04,2.82,32.09,4.22,48.13.06.65-.34,1.11-.99,1.17-3.62.32-7.25.65-10.87.99-.65.06-1.13-.33-1.19-.97Z"/>
      <path class="cls-1" d="M332.48,13.72c3.49-.27,4.49,1.1,4.56,1.96-.07-.86.13-2.18,1.4-2.27,3.49-.26,6.98-.51,10.47-.76.97-.07,1.66.32,1.71.96.91,13.27,1.82,26.53,2.72,39.8.04.65-.58,1.12-1.52,1.19-2.9.2-5.8.41-8.7.63-1.02.08-1.7-.31-1.75-.95-.03-.43-.06-.86-.1-1.29-.64,1.2-2.22,2.55-5.04,2.77-6.3.49-13.66-2.85-15.09-19.28-.81-9.25,1.98-22.01,11.35-22.75ZM338.27,31.9c-.29-3.81-.58-7.61-.87-11.42-.04-.5-.43-.76-1.1-.71-1.63.12-4.86,3.48-4.56,7.29.4,5.02,2.73,6.43,5.15,6.24,1.03-.08,1.44-.54,1.37-1.41Z"/>
      <path class="cls-1" d="M355.34,38.7c-1.06-15.59,5.56-27.02,16.07-27.61,7.52-.42,12.46,4.46,12.85,12.51.04.72-.39,1.1-1.05,1.13-2.39.12-4.77.25-7.15.38-.74.04-1.06-.37-1.1-1.09-.27-4.96-.97-6.8-2.97-6.69-2.67.15-4.32,3.57-4.06,8.1.27,4.61,2.84,5.57,15.71,4.91.74-.04,1.2.37,1.23,1.02.33,6.71.67,13.42,1,20.14.03.65-.38,1.1-1.04,1.13-2.95.15-5.91.3-8.86.47-13.06.73-19.84-2.68-20.64-14.39Z"/>
      <path class="cls-1" d="M389.28,51.32c-.77-16.11-1.54-32.22-2.31-48.33-.03-.65.32-1.1.99-1.13,3.56-.17,7.12-.33,10.69-.47.6-.02,1.06.39,1.09,1.04.29,7.12.58,14.25.87,21.37.02.36.39.56.83.54.37-.01.73-.17.87-.47,1.96-4.52,3.94-9.04,5.94-13.56.28-.51.64-.82,1.24-.84,3.03-.11,6.05-.21,9.08-.3.82-.02,1.13.54.86,1.27-2.73,5.72-5.43,11.46-8.11,17.19-.14.22-.21.44-.2.66.01.29.24.42.68.41,3.75-.13,7.33,1.28,7.44,4.73.17,5.57.34,11.13.51,16.7.02.65-.33,1.09-.98,1.11-3.56.11-7.12.23-10.68.36-.58.02-1.03-.39-1.06-1.04-.16-4.34-.33-8.68-.49-13.02-.06-1.65-.57-3.37-2.77-3.28-2.13.08-2.64,1.84-2.58,3.49.18,4.34.35,8.68.53,13.02.03.65-.39,1.1-.97,1.12-3.46.14-6.92.3-10.39.46-.65.03-1.04-.38-1.07-1.03Z"/>
      <path class="cls-1" d="M422.04,31.77c-.08-2.64-.15-5.28-.23-7.92-.02-.65.41-1.09,1.08-1.11,5.81-.16,11.62-.3,17.43-.4.66-.01,1.12.41,1.13,1.06.05,2.64.09,5.28.14,7.92.01.65-.42,1.09-1.08,1.1-5.78.11-11.55.24-17.33.4-.66.02-1.11-.4-1.13-1.05Z"/>
      <path class="cls-1" d="M445.83,49.53c-.25-16.08-.5-32.16-.75-48.24,0-.65.43-1.09,1.1-1.1,4.61-.07,9.22-.12,13.83-.15.67,0,1.05.35,1.2.93,1.71,6.16,3.4,12.32,5.08,18.48.15.5.45.79.67.79.3,0,.52-.29.66-.79,1.71-6.17,3.43-12.34,5.18-18.51C472.95.36,473.33,0,474,0c4.64,0,9.27.02,13.91.06.67,0,1.12.44,1.11,1.09-.14,16.08-.29,32.16-.43,48.24,0,.65-.45,1.08-1.1,1.07-3.2-.03-6.4-.04-9.59-.05-.65,0-1.09-.43-1.09-1.08.02-6.91.03-13.83.05-20.74,0-.43-.29-.72-.59-.72-.22,0-.52.22-.59.58-1.95,7.01-3.87,14.01-5.78,21.03-.14.58-.51.94-1.16.94-1.7,0-3.39.01-5.09.02-.65,0-1.02-.35-1.17-.93-1.93-6.97-3.89-13.94-5.86-20.91-.08-.36-.37-.57-.59-.57-.29,0-.59.29-.58.73.07,6.89.14,13.78.2,20.67,0,.65-.42,1.08-1.08,1.09-2.54.03-5.09.06-7.63.1-.65,0-1.1-.42-1.11-1.06Z"/>
      <path class="cls-1" d="M505.7,8.51c3.5.06,4.36,1.53,4.34,2.39.02-.86.34-2.15,1.61-2.13,3.5.08,6.99.16,10.49.26.97.03,1.62.48,1.61,1.13-.38,13.29-.75,26.58-1.13,39.88-.02.65-.68,1.06-1.63,1.04-2.91-.08-5.81-.15-8.72-.22-1.02-.02-1.66-.47-1.65-1.12,0-.43.02-.86.03-1.3-.75,1.14-2.45,2.32-5.28,2.27-6.32-.12-13.31-4.16-13.15-20.65.09-9.28,4.09-21.72,13.48-21.55ZM509.71,27.17c.08-3.82.16-7.63.24-11.45.01-.5-.35-.8-1.02-.81-1.63-.03-5.17,3-5.24,6.82-.08,5.04,2.09,6.66,4.52,6.71,1.03.02,1.48-.4,1.5-1.27Z"/>
      <path class="cls-1" d="M526.1,50.13c.4-13.29.81-26.58,1.21-39.87.02-.65.48-1.07,1.15-1.05,2.11.07,4.22.13,6.32.21.67.02,1.1.47,1.08,1.12-.04,1.22-.09,2.45-.13,3.67.08-2.37,4.55-4.6,11.47-4.32.74.03,1.17.41,1.14,1.13-.09,2.18-.18,4.36-.28,6.55-.03.65-.34,1.14-1.01,1.11-4.81-.2-6.84,2.32-7.02,7.29-.31,8.2-.62,16.41-.93,24.61-.02.65-.48,1.06-1.13,1.04-3.61-.13-7.22-.26-10.82-.37-.65-.02-1.08-.47-1.06-1.11Z"/>
      <path class="cls-1" d="M549.8,51.01c.71-16.11,1.42-32.23,2.12-48.34.03-.65.42-1.06,1.09-1.03,3.56.16,7.12.33,10.68.51.6.03,1.02.48.99,1.13-.36,7.12-.73,14.24-1.09,21.36-.02.36.34.59.78.62.37.02.75-.11.91-.39,2.37-4.32,4.76-8.64,7.16-12.96.33-.49.71-.75,1.31-.72,3.02.17,6.05.35,9.07.53.82.05,1.08.64.74,1.34-3.24,5.45-6.46,10.91-9.65,16.38-.16.21-.24.42-.26.63-.02.29.2.44.64.47,3.75.21,7.19,1.94,6.98,5.39-.34,5.56-.68,11.12-1.02,16.67-.04.65-.43,1.06-1.08,1.02-3.56-.22-7.11-.42-10.67-.62-.58-.03-.99-.49-.96-1.13.23-4.34.47-8.68.7-13.01.09-1.65-.26-3.4-2.46-3.52-2.13-.11-2.8,1.59-2.89,3.24-.22,4.34-.44,8.68-.66,13.02-.03.65-.49,1.06-1.07,1.03-3.46-.17-6.92-.34-10.38-.49-.65-.03-1-.48-.97-1.12Z"/>
      <path class="cls-1" d="M583.39,38.24c.51-8.47,6.02-26.42,19.5-25.46,9.96.73,11.78,6.03,11.12,14.21-.06.72-.53,1.04-1.19.99-4.67-.37-9.33-.72-14-1.05-.66-.05-1.2.2-1.25.85-.23,3.38,3.42,4.91,14.95,5.81.73.06,1.14.52,1.09,1.17-.53,6.7-1.07,13.4-1.6,20.1-.05.65-.52,1.04-1.17.99-2.95-.23-5.9-.46-8.85-.68-11.31-.84-19.33-5.14-18.61-16.93ZM604.69,20.92c-.3-.96-.92-1.66-2.03-1.74-1.33-.1-2.26.41-2.99,1.3-.16.2-.25.42-.26.56-.03.43.32.74.91.79,1.13.08,2.27.16,3.4.25.74.05,1.22-.42.98-1.16Z"/>
      <path class="cls-1" d="M617.94,48.69c.69-8.35,1.38-16.7,2.07-25.04.05-.65-.35-1.11-1.02-1.17-.67-.05-1.33-.11-2-.16-.66-.05-1.07-.52-1.02-1.17.16-1.99.32-3.97.48-5.96.05-.65.53-1.04,1.2-.99.67.05,1.34.11,2,.16.67.05,1.15-.34,1.2-.98.17-2.06.34-4.11.51-6.17.05-.65.54-1.04,1.21-.98,3.51.29,7.01.59,10.51.91.67.06,1.08.53,1.02,1.18-.18,2.06-.37,4.11-.55,6.17-.06.65.35,1.12,1.02,1.18,2,.18,4.01.37,6.01.55.67.06,1.07.54,1.01,1.18-.19,1.98-.38,3.97-.56,5.95-.06.65-.54,1.03-1.21.97-1.99-.19-3.99-.37-5.98-.55-.67-.06-1.15.33-1.2.98-.21,2.37-.43,4.73-.64,7.1-.21,2.3,1.62,3.39,6.75,3.87.66.06,1.06.53,1,1.18-.44,4.68-.89,9.37-1.33,14.05-.51,5.31-4.7,7.14-11.14,6.57-6.3-.56-9.77-3.65-9.34-8.82Z"/>
      <path class="cls-1" d="M656.89,59.01c1.69-15.99,3.38-31.99,5.07-47.98.07-.64.56-1.03,1.23-.96,5.06.54,10.12,1.1,15.18,1.68,8.49.98,12.39,4.23,11.74,9.51-.34,2.79-2.31,5.45-5.16,6.7-.39.17-.64.36-.66.5-.02.14.19.31.6.58,4.88,3.63,6.09,10.61,5.3,16.97-1.19,9.51-5.45,17.22-18.02,15.76-4.77-.55-9.55-1.07-14.32-1.58-.65-.07-1.04-.54-.97-1.19ZM675.29,24.88c1.55.18,4.51-.79,4.76-2.93.23-2-2.25-3.23-3.81-3.41-.67-.08-1.2,0-1.24.37-.2,1.76-.4,3.53-.6,5.29-.04.36.3.61.89.68ZM674,36.91c1.76.2,5.35-.62,5.64-3.12.27-2.29-2.63-3.71-4.47-3.92-.81-.09-1.42.06-1.47.49-.23,2-.45,4.01-.68,6.01-.03.29.32.47.98.55Z"/>
      <path class="cls-1" d="M691.76,50.71c1.37-11.06,6.49-28.17,19.91-26.39,13.26,1.8,13.69,19.65,12.1,30.69-.91,6.28-4.44,13.37-17.77,11.56-13.34-1.77-15.02-9.56-14.23-15.86ZM713.48,40.26c.6-4.35-.51-9.44-2.5-9.71-2.58-.35-4.7,3.81-5.34,8.66-.32,2.43,1.08,4.21,3.57,4.54,2.19.29,3.95-1.14,4.27-3.49Z"/>
      <path class="cls-1" d="M724.77,67.52c1.91-13.16,3.82-26.32,5.73-39.48.09-.64.6-1,1.26-.91,1.92.28,3.84.56,5.76.85.67.1,1.04.59.95,1.23-.23,1.52-.46,3.04-.68,4.56.3-1.99,4.76-5.12,10.37-4.24,8.42,1.31,13.33,7.38,11.54,18.25-1.34,8.17-2.67,16.34-4.01,24.52-.1.64-.61,1-1.25.89-3.48-.57-6.96-1.12-10.44-1.67-.65-.1-1.01-.6-.91-1.24.92-5.91,1.84-11.81,2.76-17.72.67-4.27.3-6.22-1.89-6.56-2.19-.34-3.13,1.41-3.79,5.68-.9,5.91-1.8,11.82-2.71,17.72-.1.64-.6,1-1.24.9-3.51-.53-7.01-1.06-10.52-1.57-.65-.09-1.02-.59-.93-1.23Z"/>
      <path class="cls-1" d="M778.45,34.43c3.46.6,4.09,2.18,3.94,3.03.15-.85.67-2.08,1.92-1.86,3.46.61,6.91,1.23,10.37,1.86.96.17,1.54.72,1.42,1.36-2.4,13.08-4.8,26.16-7.19,39.24-.12.64-.84.94-1.77.77-2.87-.52-5.74-1.04-8.62-1.55-1.01-.18-1.58-.72-1.46-1.36.07-.43.15-.85.22-1.28-.92,1.01-2.78,1.92-5.59,1.44-6.25-1.09-12.57-6.15-9.9-22.42,1.5-9.16,7.36-20.84,16.65-19.24ZM779.58,53.48c.66-3.76,1.32-7.52,1.98-11.28.09-.5-.23-.84-.89-.96-1.62-.28-5.59,2.17-6.23,5.94-.85,4.97,1.06,6.9,3.46,7.32,1.02.18,1.53-.17,1.68-1.02Z"/>
      <path class="cls-1" d="M792.35,78.69c2.42-13.07,4.85-26.15,7.27-39.22.12-.64.64-.98,1.3-.86,1.91.36,3.82.71,5.73,1.08.66.13,1.02.63.9,1.27-.29,1.51-.57,3.02-.86,4.53.37-1.98,4.96-4.92,10.55-3.83,8.37,1.64,13.06,7.9,10.84,18.69-1.66,8.11-3.31,16.23-4.97,24.34-.13.63-.65.97-1.29.84-3.46-.7-6.92-1.4-10.38-2.08-.64-.13-.99-.64-.87-1.27,1.15-5.86,2.3-11.73,3.46-17.59.83-4.24.54-6.21-1.64-6.63-2.18-.42-3.19,1.29-4.01,5.53-1.13,5.87-2.27,11.74-3.4,17.6-.12.64-.63.98-1.28.85-3.49-.67-6.98-1.33-10.47-1.98-.65-.12-1-.62-.88-1.26Z"/>
      <path class="cls-1" d="M828.85,72.77c.44-2.12.87-4.23,1.31-6.35.1-.49.33-.89.86-1.22,4.42-2.76,8.86-5.51,13.33-8.24.18-.11.28-.24.31-.38.08-.35-.46-.69-1.34-.87-3.08-.65-6.17-1.3-9.26-1.94-.66-.14-1.01-.65-.88-1.28.43-2.07.85-4.14,1.28-6.21.13-.63.66-.97,1.32-.83,8.64,1.79,17.28,3.64,25.9,5.55.66.15,1,.67.86,1.3-.21.94-.42,1.87-.63,2.81-.11.49-.36.95-.81,1.22-4.79,3.43-9.56,6.89-14.3,10.36-.17.11-.29.31-.32.45-.08.35.38.67,1.25.86,3.18.69,6.37,1.39,9.55,2.09.65.14.99.66.85,1.3-1.47,6.61-2.94,13.21-4.41,19.82-.14.63-.66.96-1.31.82-3.28-.73-6.57-1.45-9.85-2.16-14.35-3.08-15.02-10.73-13.71-17.1Z"/>
      <path class="cls-1" d="M878.5,54.68c3.43.8,3.98,2.41,3.78,3.25.2-.84.78-2.03,2.02-1.74,3.43.81,6.85,1.63,10.28,2.45.95.23,1.5.81,1.35,1.44-3.14,12.92-6.28,25.84-9.42,38.76-.15.63-.89.89-1.82.67-2.85-.69-5.69-1.37-8.54-2.04-1-.24-1.54-.81-1.39-1.44.1-.42.2-.84.3-1.26-.98.95-2.9,1.76-5.67,1.11-6.19-1.44-12.24-6.86-8.64-22.95,2.02-9.06,8.54-20.39,17.76-18.25ZM878.56,73.77c.87-3.72,1.74-7.43,2.62-11.15.11-.49-.18-.86-.84-1.01-1.6-.38-5.72,1.85-6.57,5.57-1.13,4.91.68,6.95,3.05,7.51,1.01.24,1.54-.08,1.74-.92Z"/>
      <path class="cls-1" d="M900.74,76.46c.5-7.79.99-15.58,1.45-23.37.02-.09.05-.19.07-.28.14-.56.5-.77,1.16-.61,6.34,1.56,12.67,3.15,19,4.78.73.19,1,.63.66,1.36-3.26,7.09-6.5,14.19-9.72,21.29-.3.59-.81.76-1.46.59-3.41-.87-6.82-1.73-10.23-2.58-.65-.16-.94-.53-.93-1.2ZM893.98,100.67c1.67-6.73,3.33-13.47,5-20.2.16-.63.69-.94,1.34-.78,3.89.97,7.77,1.94,11.65,2.94.65.17.97.69.81,1.32-1.72,6.72-3.44,13.44-5.16,20.16-.16.63-.69.94-1.33.77-3.83-.98-7.67-1.94-11.5-2.9-.64-.16-.96-.68-.81-1.31Z"/>
      <path class="cls-1" d="M925.3,82.73c.61-7.78,1.21-15.57,1.78-23.35.02-.09.05-.19.07-.28.14-.56.51-.76,1.17-.59,6.32,1.65,12.64,3.34,18.94,5.06.73.2,1,.65.64,1.37-3.36,7.04-6.7,14.09-10.03,21.15-.31.59-.82.75-1.46.57-3.4-.92-6.8-1.83-10.2-2.72-.65-.17-.93-.54-.91-1.21ZM918.19,106.85c1.76-6.71,3.53-13.42,5.29-20.13.16-.63.71-.93,1.35-.76,3.88,1.02,7.75,2.06,11.62,3.1.65.17.96.71.79,1.33-1.82,6.69-3.63,13.39-5.45,20.08-.17.63-.71.93-1.34.75-3.82-1.03-7.65-2.06-11.47-3.06-.64-.17-.95-.7-.79-1.32Z"/>
    </g>
  </g>
</svg>