<?xml version="1.0" encoding="UTF-8"?>
<svg id="Layer_2" data-name="Layer 2" xmlns="http://www.w3.org/2000/svg" xmlns:xlink="http://www.w3.org/1999/xlink" viewBox="0 0 1261.05 1115.38">
  <defs>
    <style>
      .cls-1 {
        fill: url(#linear-gradient);
      }

      .cls-1, .cls-2, .cls-3, .cls-4, .cls-5 {
        stroke-width: 0px;
      }

      .cls-2 {
        fill: #2f2f2f;
      }

      .cls-3 {
        fill: #de41f2;
      }

      .cls-6 {
        fill: #8c5f4f;
      }

      .cls-6, .cls-7 {
        stroke: #2f2f2f;
        stroke-miterlimit: 10;
      }

      .cls-4 {
        fill: url(#linear-gradient-2);
      }

      .cls-5 {
        fill: url(#linear-gradient-3);
      }

      .cls-7 {
        fill: #5c2b8c;
      }
    </style>
    <linearGradient id="linear-gradient" x1="210.78" y1="384.25" x2="798.69" y2="631.79" gradientUnits="userSpaceOnUse">
      <stop offset="0" stop-color="#2f2f2f"/>
      <stop offset="1" stop-color="#f25d27"/>
    </linearGradient>
    <linearGradient id="linear-gradient-2" x1="214.85" y1="419.73" x2="980.68" y2="651.79" gradientUnits="userSpaceOnUse">
      <stop offset="0" stop-color="#2f2f2f"/>
      <stop offset="1" stop-color="#de41f2"/>
    </linearGradient>
    <linearGradient id="linear-gradient-3" x1="318.51" y1="328.18" x2="1136.87" y2="804.65" gradientUnits="userSpaceOnUse">
      <stop offset="0" stop-color="#2f2f2f"/>
      <stop offset="1" stop-color="#5bbf3f"/>
    </linearGradient>
  </defs>
  <g id="WeatherBuilding">
    <path class="cls-6" d="M948.72,949.31c-6.9-2.3-22.09-5.91-29.34,1.78-3.25,3.45-4.18,8.34-4.45,9.78-1.46,7.77,1.56,13.96,2.67,16-10.37-2.96-20.75-5.93-31.12-8.89-7.34,4.88-13.12,5.54-16.89,5.33-4.07-.22-7.41-1.55-26.67-12.45-9.13-5.16-10.41-6.02-13.34-6.22-7.97-.56-16,4.55-20.45,10.67-8.5,11.68-.91,22.81-5.33,29.34-10.15,14.99-68.9-15.86-128.03-31.12-85.29-22.01-91.87,8.95-179.59-11.56-39.14-9.15-80.47-4.42-120.02-11.56-2.14-.39-9.27-1.72-10.67.89-2.63,4.9,16.92,20.08,23.12,24.89,54.05,41.99,246.34,30.23,407.2,68.46,46.74,11.11,114.84,32.15,158.26-3.56,10.33-8.5,16.68-18.08,20.45-24.89-2.67-4.45-23.12-56.01-25.78-56.9Z"/>
    <ellipse class="cls-7" cx="850.45" cy="976.96" rx="53.18" ry="107.5" transform="translate(-426.6 760.49) rotate(-39.34)"/>
    <g>
      <path class="cls-2" d="M905.72,1061.73c-24.22,0-59.58-23.29-87.99-57.95-37.4-45.63-51.35-96.26-31.1-112.85,4.29-3.52,9.86-5.3,16.56-5.3,24.22,0,59.58,23.29,87.99,57.95,37.4,45.63,51.35,96.26,31.1,112.86-4.29,3.52-9.86,5.3-16.56,5.3Z"/>
      <path class="cls-2" d="M803.2,886.12c24.07,0,59.28,23.22,87.6,57.77,37.23,45.42,51.21,95.73,31.17,112.15-4.2,3.44-9.67,5.19-16.25,5.19-24.08,0-59.28-23.22-87.6-57.77-37.23-45.42-51.21-95.73-31.17-112.15,4.2-3.44,9.67-5.19,16.25-5.19h0M803.19,885.12c-6.65,0-12.4,1.74-16.88,5.41-20.5,16.8-6.6,67.64,31.03,113.56,29.41,35.88,64.61,58.14,88.38,58.14,6.65,0,12.4-1.74,16.88-5.41,20.5-16.8,6.6-67.64-31.03-113.56-29.41-35.88-64.61-58.14-88.38-58.14h0Z"/>
    </g>
    <g>
      <g>
        <path class="cls-1" d="M832.31,993.51c-11.71-23.06-14.69-43.7-8.84-61.35,7-21.12,24.61-31.61,41.63-41.76,16.51-9.84,32.1-19.13,37.37-37.26,4.92-16.92-3.28-28.14-12.77-41.13-8.78-12.02-18.73-25.64-21.21-47.07-4.41-38.14,7.99-78.4,34.91-113.34,22.77-29.55,54.47-52.97,82.73-61.12,55.52-16.01,67.11-40.28,69.34-47.33,1.39-4.38.5-9.3-2.55-14.2-9.48-15.24-37.46-27.74-74.85-33.44-3.09-.47-6.41-.71-9.85-.71-37.66,0-92.54,28.69-150.64,59.06-53.68,28.06-114.53,59.87-170.7,73.66-21.84,5.36-44.65,8.08-67.81,8.08-71.38,0-150.73-25.81-235.86-76.73C240.27,497.3,126,397.39,3.59,261.91L120.1,1.01c111.27,158.36,224.52,277.6,336.62,354.4,25.11,17.21,48.01,30.94,78.11,42.06,32.62,12.04,65.1,17.9,99.31,17.9,45.13,0,88.15-10.34,129.75-20.33,30.32-7.29,61.68-14.82,94.17-18.54,16.12-1.85,32.82-2.78,49.61-2.78,81.28,0,151.33,21.17,195.77,38.93,55.47,22.16,103.51,52.01,131.8,81.88,17.29,18.25,26.02,35.35,25.26,49.44-1.91,35.19-63.93,62.42-129.59,91.24-39.39,17.29-80.12,35.17-111.3,56.03-35.44,23.71-52.81,47.83-53.11,73.75-.08,7.22,1.17,14.81,2.5,22.84,2.91,17.63,6.21,37.62-1.48,65.04-4.68,16.68-13.65,26.59-23.15,37.08-9.16,10.12-18.63,20.58-24.84,37.89-7.35,20.48-8.74,43.24-4.14,67.65l-83.08-1.98Z"/>
        <path class="cls-2" d="M120.19,2.02c111.14,158.05,224.26,277.09,336.24,353.81,25.14,17.23,48.07,30.98,78.22,42.11,32.67,12.06,65.22,17.93,99.49,17.93,45.19,0,88.23-10.34,129.87-20.35,30.31-7.28,61.65-14.81,94.11-18.53,16.11-1.84,32.78-2.78,49.56-2.78,81.2,0,151.18,21.15,195.59,38.9,55.4,22.14,103.38,51.94,131.63,81.76,17.19,18.15,25.88,35.12,25.12,49.07-1.89,34.88-63.78,62.05-129.3,90.81-39.41,17.3-80.16,35.19-111.38,56.07-35.59,23.81-53.03,48.07-53.33,74.16-.08,7.27,1.17,14.87,2.5,22.92,2.9,17.58,6.2,37.51-1.47,64.82-4.65,16.57-13.58,26.43-23.04,36.88-9.19,10.15-18.7,20.65-24.94,38.05-7.32,20.4-8.75,43.04-4.27,67.31l-82.17-1.96c-11.54-22.83-14.46-43.25-8.67-60.7,6.94-20.94,24.47-31.39,41.41-41.49,16.6-9.89,32.27-19.24,37.6-37.55,4.99-17.16-3.28-28.47-12.85-41.56-8.74-11.97-18.66-25.53-21.12-46.83-2.32-20.11-.1-40.55,6.62-60.78,6.04-18.2,15.53-35.76,28.19-52.2,22.71-29.47,54.31-52.82,82.47-60.95,55.75-16.08,67.43-40.55,69.68-47.66,1.43-4.53.53-9.58-2.6-14.62-9.56-15.36-37.67-27.95-75.2-33.67-3.12-.48-6.46-.72-9.93-.72-37.79,0-92.72,28.72-150.88,59.12-53.66,28.05-114.47,59.84-170.59,73.62-21.8,5.35-44.57,8.06-67.69,8.06-33.65,0-69.31-5.74-106-17.06-41.08-12.68-84.68-32.73-129.6-59.59-49.36-29.52-101.73-68.12-155.64-114.71-58.34-50.42-120.12-111.62-183.65-181.91L120.19,2.02M120,0C81,87.33,42,174.67,3,262c265.57,293.99,448.94,374.09,576.07,374.09,24.7,0,47.29-3.03,67.93-8.09,116.95-28.71,248.92-132.71,321.23-132.71,3.39,0,6.65.23,9.77.71,59,9,81.78,31.89,77,47-3.05,9.64-17,32-69,47-54.09,15.6-127.88,89.53-118,175,5.2,45,43.31,55.97,34,88-10.68,36.74-65.2,37.39-79,79-7.77,23.42,1.51,47.34,9,62,28,.67,56,1.33,84,2-3.32-17.28-5.31-42.04,4-68,12.58-35.07,38.74-42.01,48-75,11.34-40.43-1.26-65.53-1-88,1.21-106.27,289.79-143.53,294-221,3.33-61.29-170.07-170.78-353.33-170.78-16.51,0-33.12.89-49.67,2.78-77.5,8.87-146.21,38.87-223.86,38.87-31.22,0-63.88-4.85-99.14-17.87-28.54-10.54-51.17-23.62-78-42C321.4,262.1,204.17,119.9,120,0h0Z"/>
      </g>
      <g>
        <path class="cls-4" d="M909.71,995.49c-13.22-.33-24.05-.66-34.54-.99-10.57-.33-21.49-.66-34.85-.99l-.16-.32c-7.27-14.77-19.45-39.48-8.71-60.96s27.44-30.54,43.95-40.06c16.37-9.43,31.84-18.33,37.08-37.03,4.42-15.76-5.55-29.78-16.1-44.62-11.14-15.67-23.77-33.42-21.88-56.48,2.51-30.67,13.98-62.86,32.29-90.64,19.67-29.83,45.05-51.6,73.39-62.94,47.96-19.18,82.22-34.82,86.31-61.39,1.31-8.53-5.41-18.98-17.97-27.96-10.44-7.46-29.75-17.43-62.45-22.61-3.19-.51-6.68-.76-10.37-.76-39.29,0-101.61,28.73-167.59,59.15-56.1,25.86-114.1,52.6-165.24,65.62-19.33,4.92-40.11,7.42-61.77,7.42-72.14,0-153.16-26.88-240.8-79.9C234.18,475.84,119.9,373.86.58,236.91c18.75-43.53,37.36-80.72,55.36-116.69,17.93-35.83,36.47-72.87,55.15-116.19,73.68,108.68,201.67,259.65,340.61,358.37,23.53,16.72,51.15,31.21,82.11,43.06,31.81,12.18,64.07,18.1,98.62,18.1,45.47,0,89.26-10.36,131.61-20.37,29.29-6.93,59.58-14.09,90.01-17.7,16.58-1.97,33.77-2.97,51.07-2.97,133.54,0,260.94,58.32,313.02,113.19,16.64,17.53,25.04,34.22,24.31,48.25-1.84,35.19-61.64,62.42-124.95,91.24-37.98,17.29-77.25,35.17-107.32,56.03-34.17,23.71-50.92,47.83-51.21,73.75-.08,7.22,1.13,14.8,2.41,22.83,2.81,17.64,5.99,37.63-1.43,65.04-4.51,16.68-13.16,26.59-22.32,37.08-8.83,10.12-17.97,20.58-23.95,37.89-7.08,20.48-8.42,43.24-3.99,67.65Z"/>
        <path class="cls-2" d="M111.2,5.07c73.79,108.66,201.56,259.21,340.22,357.74,23.56,16.74,51.22,31.25,82.22,43.12,31.87,12.2,64.18,18.13,98.8,18.13,45.53,0,89.35-10.36,131.72-20.38,29.28-6.92,59.55-14.08,89.96-17.69,16.57-1.97,33.73-2.96,51.01-2.96,133.4,0,260.65,58.24,312.65,113.03,16.54,17.43,24.9,33.99,24.17,47.88-1.83,34.89-61.49,62.05-124.66,90.81-38,17.3-77.3,35.19-107.39,56.07-34.31,23.81-51.14,48.06-51.42,74.15-.08,7.26,1.13,14.87,2.41,22.92,2.8,17.59,5.97,37.52-1.41,64.83-4.48,16.57-13.1,26.44-22.22,36.88-8.86,10.15-18.03,20.65-24.05,38.05-7.05,20.39-8.44,43.03-4.12,67.3-12.94-.32-23.6-.65-33.92-.97-10.49-.32-21.33-.66-34.56-.99l-.03-.05c-7.23-14.68-19.34-39.26-8.71-60.52,10.29-20.58,27.3-30.37,43.75-39.85,16.46-9.48,32.02-18.43,37.31-37.33,4.48-16-5.55-30.1-16.18-45.04-11.09-15.6-23.67-33.27-21.79-56.15,2.51-30.59,13.95-62.7,32.21-90.41,19.61-29.75,44.91-51.45,73.16-62.75,48.11-19.25,82.49-34.94,86.62-61.78,1.34-8.72-5.45-19.35-18.17-28.44-10.48-7.49-29.86-17.51-62.66-22.7-3.22-.51-6.73-.77-10.46-.77-39.4,0-101.77,28.75-167.8,59.2-56.07,25.85-114.05,52.58-165.14,65.59-19.29,4.91-40.03,7.4-61.65,7.4-33.73,0-70.01-6.04-107.82-17.96-42.2-13.3-86.86-34.12-132.73-61.87C234.55,475.48,120.37,373.61,1.17,236.82c18.71-43.39,37.27-80.49,55.23-116.37,17.82-35.6,36.23-72.4,54.8-115.38M111,3C73.4,90.33,37.6,149.67,0,237c259.53,297.98,453.54,383.43,581.1,383.43,22.74,0,43.38-2.72,61.9-7.43,112.38-28.61,260.77-124.77,332.71-124.76,3.63,0,7.07.25,10.29.76,56.89,9,82.4,34.39,80,50-4,26-37.41,41.56-86,61-60,24-101,93-106,154-3.7,45.13,46.98,68.97,38,101-10.3,36.74-60,35-81,77-11,21.99,1.78,47.34,9,62,27,.67,43.31,1.33,70.31,2-3.2-17.28-5.12-42.04,3.86-68,12.13-35.07,37.36-42.01,46.28-75,10.94-40.43-1.21-65.53-.96-88,1.17-106.27,279.42-143.53,283.47-221,3.19-60.92-162.27-161.97-337.83-161.97-16.99,0-34.09.95-51.13,2.97-74.36,8.83-144.64,38.07-221.56,38.07-31.45,0-64.03-4.89-98.44-18.07-27.52-10.54-56.13-24.62-82-43C321.25,269.1,192.16,122.9,111,3h0Z"/>
      </g>
      <g>
        <path class="cls-5" d="M903.4,995.48c-13.12-.33-20.87-.66-28.38-.98-7.57-.33-15.39-.66-28.71-.99-5.61-11.39-18.27-37.48-6.87-60.28,10.4-20.8,27.82-29.89,44.67-38.69,16.53-8.63,32.14-16.78,37.37-35.4,4.43-15.82-5.37-30.82-15.74-46.71-10.84-16.6-23.13-35.41-21.24-58.39,2.49-30.33,13.6-61.28,31.29-87.13,18.79-27.46,43.82-48.01,72.4-59.44,54.4-21.76,87.68-47.78,91.31-71.39,2.46-15.99-36.98-47.48-94.42-56.57-3.25-.51-6.81-.77-10.58-.77-39.74,0-103.18,28.54-170.35,58.76-55.89,25.14-113.67,51.14-164.27,64.02-19.17,4.88-39.62,7.35-60.8,7.35-70.65,0-150.22-26.99-236.51-80.22C238.74,464.59,125.37,362.41,5.58,224.91c18.74-43.51,34.31-76.14,49.37-107.69,15-31.43,30.5-63.92,49.15-107.18,58.9,86.92,179.6,247.78,329.61,354.37,26.86,19.09,67.17,39.13,93.11,49.06,31.81,12.18,64.53,18.1,100.04,18.1,47.2,0,92.97-10.53,137.23-20.71,29.51-6.79,60.02-13.81,89.96-17.36,17.63-2.09,35.77-3.15,53.92-3.15,128.19,0,244.97,52.37,294.06,104.1,16.77,17.67,25.23,34.8,24.46,49.53-1.84,35.19-59.61,62.41-120.78,91.23-36.71,17.29-74.66,35.18-103.72,56.04-33.03,23.71-49.22,47.84-49.51,73.75-.08,7.37,1.29,15.12,2.74,23.33,3.1,17.53,6.62,37.39-.73,64.54-4.5,16.62-13.78,26.5-23.6,36.96-9.53,10.14-19.38,20.63-25.39,38.01-8.31,24.05-5.98,46.71-2.13,67.65Z"/>
        <path class="cls-2" d="M104.2,11.07c59.11,87.13,179.59,247.42,329.22,353.74,26.89,19.11,67.25,39.17,93.22,49.12,31.87,12.2,64.65,18.13,100.22,18.13,47.26,0,93.06-10.54,137.34-20.72,29.49-6.78,59.99-13.8,89.91-17.35,17.61-2.09,35.73-3.15,53.86-3.15,128.05,0,244.68,52.29,293.7,103.95,16.67,17.57,25.08,34.57,24.32,49.16-1.83,34.89-59.47,62.05-120.49,90.8-36.73,17.3-74.7,35.2-103.8,56.08-33.17,23.81-49.43,48.07-49.71,74.15-.08,7.42,1.29,15.19,2.75,23.42,3.09,17.47,6.6,37.28-.72,64.33-4.46,16.5-13.7,26.33-23.49,36.75-9.56,10.18-19.45,20.71-25.49,38.19-8.27,23.92-6.05,46.46-2.26,67.3-12.74-.32-20.37-.65-27.75-.97-7.51-.32-15.27-.66-28.41-.99-5.64-11.46-17.94-37.17-6.74-59.57,10.33-20.66,27.68-29.71,44.45-38.47,16.63-8.68,32.34-16.88,37.62-35.71,4.5-16.03-5.36-31.13-15.8-47.11-10.8-16.53-23.03-35.27-21.16-58.07,2.48-30.25,13.56-61.11,31.2-86.89,18.73-27.38,43.69-47.87,72.17-59.26,25.38-10.15,46.98-21.62,62.45-33.17,17.41-12.99,27.23-25.98,29.17-38.61,1.29-8.39-8.37-20.45-25.21-31.47-19.04-12.46-43.77-21.58-69.62-25.67-3.28-.52-6.86-.78-10.66-.78-39.85,0-103.34,28.56-170.55,58.8-55.87,25.13-113.63,51.12-164.19,64-19.13,4.87-39.54,7.34-60.68,7.34-70.55,0-150.04-26.97-236.24-80.15C239.11,464.23,125.84,362.15,6.17,224.82c18.68-43.36,34.21-75.91,49.24-107.39,14.9-31.23,30.31-63.51,48.79-106.36M104,9C66.4,96.33,42.6,137.67,5,225c259.87,298.37,448.25,384.37,574.08,384.37,22.24,0,42.55-2.69,60.92-7.37,112.28-28.59,262.3-122.77,334.5-122.77,3.71,0,7.22.25,10.5.77,56.89,9,96.4,40.39,94,56-4,26-42.41,51.56-91,71-60,24-99,86-104,147-3.7,45.13,45.98,72.97,37,105-10.3,36.74-61,32-82,74-11,21.99-.22,46.34,7,61,27,.67,31,1.33,58,2-3.2-17.28-6.98-42.04,2-68,12.13-35.07,40.07-42.01,49-75,10.94-40.43-2.25-65.53-2-88,1.17-106.27,269.94-143.53,274-221,3.17-60.54-147.14-154.16-319.02-154.16-17.81,0-35.86,1.01-53.98,3.16-74.36,8.83-148.16,38.07-227.13,38.07-32.29,0-65.46-4.89-99.87-18.07-27.52-10.54-67.13-30.62-93-49C303.25,271.1,185.16,128.9,104,9h0Z"/>
      </g>
    </g>
    <g>
      <path class="cls-2" d="M903.6,1066.87c-20.11,0-55.42-25.94-85.87-63.09-18.17-22.17-32.33-45.39-39.88-65.39-7.49-19.83-7.58-34.06-.25-40.06,2.46-2.01,5.71-3.04,9.66-3.04,20.11,0,55.42,25.94,85.87,63.09,37.4,45.63,55.41,92.94,40.13,105.45-2.46,2.01-5.71,3.04-9.66,3.04Z"/>
      <path class="cls-2" d="M787.26,894.79v1h0c19.97,0,55.12,25.87,85.48,62.91,18.14,22.13,32.27,45.3,39.8,65.25,7.3,19.33,7.44,33.73.4,39.5-2.37,1.94-5.51,2.92-9.34,2.92-19.97,0-55.12-25.87-85.48-62.91-18.14-22.13-32.27-45.3-39.8-65.25-7.3-19.33-7.44-33.73-.4-39.5,2.37-1.94,5.51-2.92,9.34-2.92v-1M787.25,894.79c-3.99,0-7.37,1.02-9.97,3.15-15.51,12.71,2.43,60.24,40.07,106.16,31.33,38.22,66.42,63.27,86.25,63.27,3.99,0,7.37-1.02,9.97-3.15,15.51-12.71-2.43-60.24-40.07-106.16-31.33-38.22-66.42-63.28-86.25-63.27h0Z"/>
    </g>
    <g>
      <path class="cls-3" d="M921.73,1012.42c-2.08,0-5.16-2.05-7.67-5.11-1.61-1.97-2.79-4.09-3.3-5.98-.47-1.73-.32-3.06.41-3.66.31-.25.72-.38,1.22-.38,2.08,0,5.16,2.05,7.67,5.11,3.52,4.3,4.34,8.46,2.9,9.64-.31.25-.72.38-1.22.38Z"/>
      <path class="cls-2" d="M912.39,997.78h0c1.56,0,4.5,1.54,7.28,4.93,1.57,1.92,2.71,3.98,3.21,5.8.41,1.51.32,2.68-.24,3.14-.22.18-.52.27-.9.27-1.56,0-4.5-1.54-7.28-4.93-1.57-1.92-2.71-3.98-3.21-5.8-.41-1.51-.32-2.68.24-3.14.22-.18.52-.27.9-.27M912.39,996.78c-.61,0-1.13.16-1.54.49-1.87,1.53-.6,6.16,2.83,10.35,2.68,3.27,5.89,5.3,8.05,5.3.61,0,1.13-.16,1.54-.49,1.87-1.53.6-6.16-2.83-10.35-2.68-3.27-5.89-5.3-8.05-5.3h0Z"/>
    </g>
    <g>
      <path class="cls-3" d="M813.18,945.18c-4.29,0-10.61-4.18-15.71-10.41-6.56-8-9.18-17.15-5.72-19.98.71-.58,1.63-.87,2.76-.87,4.29,0,10.61,4.18,15.71,10.41,6.56,8,9.18,17.15,5.72,19.98-.71.58-1.63.87-2.76.87Z"/>
      <path class="cls-2" d="M794.5,914.42h0c4.15,0,10.31,4.11,15.32,10.22,7.04,8.59,8.68,16.9,5.79,19.27-.61.5-1.44.76-2.44.76-4.15,0-10.31-4.11-15.32-10.22-3.23-3.94-5.57-8.19-6.6-11.96-.94-3.45-.65-6.12.81-7.32.61-.5,1.44-.76,2.44-.76M794.5,913.42c-1.21,0-2.26.32-3.07.99-3.73,3.06-1.2,12.32,5.65,20.68,5.36,6.53,11.77,10.59,16.1,10.59,1.21,0,2.26-.32,3.07-.99,3.73-3.06,1.2-12.32-5.65-20.68-5.36-6.53-11.77-10.59-16.1-10.59h0Z"/>
    </g>
    <g>
      <path class="cls-3" d="M814.84,914.83c-2.68,0-6.64-2.63-9.86-6.56-4.11-5.01-5.79-10.72-3.67-12.46.42-.34.97-.51,1.64-.51,2.68,0,6.65,2.64,9.86,6.56,2.07,2.52,3.57,5.24,4.23,7.66.62,2.25.41,4-.56,4.8-.42.34-.97.51-1.64.51Z"/>
      <path class="cls-2" d="M802.95,895.8h0c2.5,0,6.4,2.62,9.47,6.37,4.28,5.22,5.41,10.39,3.74,11.76-.32.27-.77.4-1.32.4-2.5,0-6.4-2.62-9.47-6.37-2.02-2.47-3.49-5.12-4.14-7.48-.56-2.05-.42-3.61.4-4.28.32-.27.77-.4,1.32-.4M802.95,894.8c-.77,0-1.44.2-1.96.63-2.38,1.95-.77,7.84,3.6,13.17,3.41,4.16,7.49,6.74,10.25,6.74.77,0,1.44-.2,1.96-.63,2.38-1.95.77-7.84-3.6-13.17-3.41-4.16-7.49-6.74-10.25-6.74h0Z"/>
    </g>
    <g>
      <path class="cls-3" d="M824.18,984.18c-4.29,0-10.61-4.18-15.71-10.41-6.56-8-9.18-17.15-5.72-19.98.71-.58,1.63-.87,2.76-.87,4.29,0,10.61,4.18,15.71,10.41,6.56,8,9.18,17.15,5.72,19.98-.71.58-1.63.87-2.76.87Z"/>
      <path class="cls-2" d="M805.5,953.42h0c4.15,0,10.31,4.11,15.32,10.22,7.04,8.59,8.68,16.9,5.79,19.27-.61.5-1.44.76-2.44.76-4.15,0-10.31-4.11-15.32-10.22-3.23-3.94-5.57-8.19-6.6-11.96-.94-3.45-.65-6.12.81-7.32.61-.5,1.44-.76,2.44-.76M805.5,952.42c-1.21,0-2.26.32-3.07.99-3.73,3.06-1.2,12.32,5.65,20.68,5.36,6.53,11.77,10.59,16.1,10.59,1.21,0,2.26-.32,3.07-.99,3.73-3.06,1.2-12.32-5.65-20.68-5.36-6.53-11.77-10.59-16.1-10.59h0Z"/>
    </g>
    <g>
      <path class="cls-3" d="M923.23,1042.8c-2.68,0-6.65-2.64-9.86-6.56-2.07-2.52-3.57-5.24-4.23-7.66-.62-2.25-.41-4,.56-4.8.42-.34.97-.51,1.64-.51,2.68,0,6.64,2.63,9.86,6.56,4.11,5.01,5.79,10.72,3.67,12.46-.42.34-.97.51-1.64.51Z"/>
      <path class="cls-2" d="M911.35,1023.77h0c2.5,0,6.4,2.62,9.47,6.37,2.02,2.47,3.49,5.12,4.14,7.48.56,2.05.42,3.61-.4,4.28-.32.27-.77.4-1.32.4-2.5,0-6.4-2.62-9.47-6.37-2.02-2.47-3.49-5.12-4.14-7.48-.56-2.05-.42-3.61.4-4.28.32-.27.77-.4,1.32-.4M911.35,1022.77c-.77,0-1.44.2-1.96.63-2.38,1.95-.77,7.84,3.6,13.17,3.41,4.16,7.49,6.74,10.25,6.74.77,0,1.44-.2,1.96-.63,2.38-1.95.77-7.84-3.6-13.17-3.41-4.16-7.49-6.74-10.25-6.74h0Z"/>
    </g>
    <g>
      <path class="cls-3" d="M899.18,1050.18c-4.29,0-10.61-4.18-15.71-10.41-6.56-8-9.18-17.15-5.72-19.98.71-.58,1.63-.87,2.76-.87,4.29,0,10.61,4.18,15.71,10.41,6.56,8,9.18,17.15,5.72,19.98-.71.58-1.63.87-2.76.87Z"/>
      <path class="cls-2" d="M880.5,1019.42h0c4.15,0,10.31,4.11,15.32,10.22,3.23,3.94,5.57,8.19,6.6,11.96.94,3.45.65,6.12-.81,7.32-.61.5-1.44.76-2.44.76-4.15,0-10.31-4.11-15.32-10.22-7.04-8.59-8.68-16.91-5.79-19.27.61-.5,1.44-.76,2.44-.76M880.5,1018.42c-1.21,0-2.26.32-3.07.99-3.73,3.06-1.2,12.32,5.65,20.68,5.36,6.53,11.77,10.59,16.1,10.59,1.21,0,2.26-.32,3.07-.99,3.73-3.06,1.2-12.32-5.65-20.68-5.36-6.53-11.77-10.59-16.1-10.59h0Z"/>
    </g>
    <g>
      <path class="cls-3" d="M858.18,1025.18c-4.29,0-10.61-4.18-15.71-10.41-6.56-8-9.18-17.15-5.72-19.98.71-.58,1.63-.87,2.76-.87,4.29,0,10.61,4.18,15.71,10.41,6.56,8,9.18,17.15,5.72,19.98-.71.58-1.63.87-2.76.87Z"/>
      <path class="cls-2" d="M839.5,994.42h0c4.15,0,10.31,4.11,15.32,10.22,3.23,3.94,5.57,8.19,6.6,11.96.94,3.45.65,6.12-.81,7.32-.61.5-1.44.76-2.44.76-4.15,0-10.31-4.11-15.32-10.22-7.04-8.59-8.68-16.91-5.79-19.27.61-.5,1.44-.76,2.44-.76M839.5,993.42c-1.21,0-2.26.32-3.07.99-3.73,3.06-1.2,12.32,5.65,20.68,5.36,6.53,11.77,10.59,16.1,10.59,1.21,0,2.26-.32,3.07-.99,3.73-3.06,1.2-12.32-5.65-20.68-5.36-6.53-11.77-10.59-16.1-10.59h0Z"/>
    </g>
    <path class="cls-7" d="M863.5,915.5l.29,11.21h6.24s7.47-4.21,7.47-3.21v17.15l-11,5.85,14,11,4-6,4.89,6,5.11-14,4.69,9.79,7.31-.79,3,9h4c1.3.83,1.93,8.13,3.3,14.21,1.56,6.93,1.4,14.07-.4,20.81-1.7,6.38-5.27,12.11-10.12,16.6l-5.79,5.37c-1.09,2.54-14-3-27-15l-12.13-10.51c-5.64-4.68-7.87-7.49-14.13-16.62l-12.73-23.87c-14-27-7.74-35.62-4.17-36.3l8.03-3.33c5.51-1.6,11.3-1.92,16.97-1.02,4.17.66,4.09.57,4.17.66,1,1,4,3,4,3Z"/>
    <path class="cls-6" d="M965.5,1000.5c-7.76-2.59-24.84-6.65-33,2-3.66,3.88-4.7,9.39-5,11-1.64,8.74,1.75,15.71,3,18-11.67-3.33-23.33-6.67-35-10-8.25,5.49-14.76,6.23-19,6-4.58-.25-8.34-1.74-30-14-10.26-5.81-11.71-6.77-15-7-8.96-.63-17.99,5.12-23,12-9.56,13.13-1.02,25.65-6,33-11.42,16.86-77.5-17.84-144-35-95.93-24.75-103.33,10.06-202-13-44.02-10.29-90.51-4.98-135-13-2.41-.43-10.43-1.93-12,1-2.95,5.51,19.03,22.59,26,28,60.79,47.23,277.07,34,458,77,52.58,12.5,129.17,36.16,178-4,11.62-9.56,18.76-20.34,23-28-3-5-26-63-29-64Z"/>
  </g>
</svg>